<svg xmlns="http://www.w3.org/2000/svg" xmlns:xlink="http://www.w3.org/1999/xlink" width="147" height="101" viewBox="0 0 147 101">
  <defs>
    <clipPath id="clip-path">
      <rect id="Rectangle_159" data-name="Rectangle 159" width="147" height="101" transform="translate(-204 128)" fill="none" opacity="0.7"/>
    </clipPath>
    <clipPath id="clip-path-2">
      <rect id="Rectangle_1" data-name="Rectangle 1" width="219" height="128" transform="translate(0 0.269)" fill="#377c2b"/>
    </clipPath>
    <radialGradient id="radial-gradient" cx="0.523" cy="0.871" r="0.707" gradientTransform="translate(-0.001 0) rotate(-0.054)" gradientUnits="objectBoundingBox">
      <stop offset="0" stop-color="#46883a"/>
      <stop offset="1" stop-color="#1c3e16"/>
    </radialGradient>
    <clipPath id="clip-path-3">
      <path id="Path_2" data-name="Path 2" d="M.595,12.671c.943.812,5.24.756,5.24.756s.968-.094.968-3.246S6.986,2.1,5.835.815.39-.06.045.815s1.4,4.214,1.536,7.178S-.348,11.86.595,12.671Z" transform="translate(0 0)" fill="none"/>
    </clipPath>
    <clipPath id="clip-path-4">
      <path id="Path_23" data-name="Path 23" d="M.6.757C1.538-.055,5.836,0,5.836,0S6.8.094,6.8,3.247s.182,8.085-.968,9.365-5.445.876-5.79,0S1.444,8.4,1.581,5.434-.348,1.568.6.757Z" fill="none"/>
    </clipPath>
    <clipPath id="clip-path-7">
      <path id="Path_5" data-name="Path 5" d="M.6.757C1.538-.055,5.836,0,5.836,0S6.8.094,6.8,3.247s.182,8.085-.968,9.365-5.445.876-5.79,0S1.444,8.4,1.581,5.434-.348,1.568.6.757Z" transform="translate(0 0)" fill="none"/>
    </clipPath>
    <clipPath id="clip-path-22">
      <path id="Path_17" data-name="Path 17" d="M.595.757C1.538-.055,5.835,0,5.835,0S6.8.094,6.8,3.247s.183,8.085-.968,9.365-5.445.876-5.79,0S1.444,8.4,1.581,5.434-.348,1.568.595.757Z" transform="translate(0 0)" fill="none"/>
    </clipPath>
  </defs>
  <g id="Mask_Group_48" data-name="Mask Group 48" transform="translate(204 -128)" clip-path="url(#clip-path)">
    <g id="ru_ro_fan" data-name="ru ro fan" transform="translate(-732 -56)">
      <g id="Mask_Group_46" data-name="Mask Group 46" transform="translate(492 224.731)" clip-path="url(#clip-path-2)">
        <path id="Polygon_1" data-name="Polygon 1" d="M25.911,2.081a2,2,0,0,1,3.179,0L52.545,32.786A2,2,0,0,1,50.955,36H4.045a2,2,0,0,1-1.589-3.214Z" transform="translate(84 21.269)" fill="#377c2b"/>
        <ellipse id="Ellipse_1" data-name="Ellipse 1" cx="76.5" cy="86.5" rx="76.5" ry="86.5" transform="translate(34 -118.731)" fill="url(#radial-gradient)"/>
      </g>
      <g id="rim" transform="translate(530 211)" fill="none" stroke="#4b913e" stroke-width="5">
        <ellipse cx="71.5" cy="13.5" rx="71.5" ry="13.5" stroke="none"/>
        <ellipse cx="71.5" cy="13.5" rx="69" ry="11" fill="none"/>
      </g>
      <ellipse id="Ellipse_3" data-name="Ellipse 3" cx="70" cy="11" rx="70" ry="11" transform="translate(532 213)" fill="#f09898"/>
      <g id="rice" transform="translate(537.988 184.24)">
        <path id="Path_1" data-name="Path 1" d="M544.972,220.33s12.256-23.939,61.4-25.3,66.067,25.3,66.067,25.3a107.857,107.857,0,0,1-20.533,4.7,358.049,358.049,0,0,1-44.1,1.836c-22.657-.311-41.4-2.167-46.527-3.079C547.391,221.317,544.972,220.33,544.972,220.33Z" transform="translate(-544.972 -175.743)" fill="#fff"/>
        <g id="Group_1" data-name="Group 1" transform="translate(1.794 24.563)">
          <circle id="Ellipse_4" data-name="Ellipse 4" cx="5" cy="5" r="5" transform="translate(0.217 9.196)" fill="#fff"/>
          <circle id="Ellipse_5" data-name="Ellipse 5" cx="5" cy="5" r="5" transform="translate(4.217 3.196)" fill="#fff"/>
          <ellipse id="Ellipse_6" data-name="Ellipse 6" cx="5.5" cy="5" rx="5.5" ry="5" transform="translate(10.217 0.196)" fill="#fff"/>
        </g>
        <g id="Group_2" data-name="Group 2" transform="translate(15.067 17.485)">
          <ellipse id="Ellipse_4-2" data-name="Ellipse 4" cx="5.5" cy="5" rx="5.5" ry="5" transform="translate(-0.056 9.275)" fill="#fff"/>
          <circle id="Ellipse_5-2" data-name="Ellipse 5" cx="5" cy="5" r="5" transform="translate(3.944 3.275)" fill="#fff"/>
          <circle id="Ellipse_6-2" data-name="Ellipse 6" cx="5" cy="5" r="5" transform="translate(10.944 0.275)" fill="#fff"/>
        </g>
        <g id="Group_3" data-name="Group 3" transform="translate(30.802 9.151) rotate(13)">
          <circle id="Ellipse_4-3" data-name="Ellipse 4" cx="5.309" cy="5.309" r="5.309" transform="translate(0 8.849)" fill="#fff"/>
          <circle id="Ellipse_5-3" data-name="Ellipse 5" cx="4.867" cy="4.867" r="4.867" transform="translate(4.424 3.539)" fill="#fff"/>
          <circle id="Ellipse_6-3" data-name="Ellipse 6" cx="5.309" cy="5.309" r="5.309" transform="translate(10.618)" fill="#fff"/>
        </g>
        <g id="Group_4" data-name="Group 4" transform="matrix(0.921, 0.391, -0.391, 0.921, 46.261, 6.146)">
          <circle id="Ellipse_4-4" data-name="Ellipse 4" cx="5.309" cy="5.309" r="5.309" transform="translate(0 8.849)" fill="#fff"/>
          <circle id="Ellipse_5-4" data-name="Ellipse 5" cx="4.867" cy="4.867" r="4.867" transform="translate(4.424 3.539)" fill="#fff"/>
          <circle id="Ellipse_6-4" data-name="Ellipse 6" cx="5.309" cy="5.309" r="5.309" transform="translate(10.618 0)" fill="#fff"/>
        </g>
        <g id="Group_5" data-name="Group 5" transform="matrix(0.469, 0.883, -0.883, 0.469, 65.574, 0)">
          <circle id="Ellipse_4-5" data-name="Ellipse 4" cx="5.309" cy="5.309" r="5.309" transform="translate(0 8.849)" fill="#fff"/>
          <circle id="Ellipse_5-5" data-name="Ellipse 5" cx="4.867" cy="4.867" r="4.867" transform="translate(4.424 3.539)" fill="#fff"/>
          <circle id="Ellipse_6-5" data-name="Ellipse 6" cx="5.309" cy="5.309" r="5.309" transform="translate(10.618 0)" fill="#fff"/>
        </g>
        <g id="Group_6" data-name="Group 6" transform="matrix(0.469, 0.883, -0.883, 0.469, 78.847, 3.539)">
          <circle id="Ellipse_4-6" data-name="Ellipse 4" cx="5.309" cy="5.309" r="5.309" transform="translate(0 8.849)" fill="#fff"/>
          <circle id="Ellipse_5-6" data-name="Ellipse 5" cx="4.867" cy="4.867" r="4.867" transform="translate(4.424 3.539)" fill="#fff"/>
          <circle id="Ellipse_6-6" data-name="Ellipse 6" cx="5.309" cy="5.309" r="5.309" transform="translate(10.618 0)" fill="#fff"/>
        </g>
        <g id="Group_7" data-name="Group 7" transform="matrix(0.469, 0.883, -0.883, 0.469, 95.66, 7.079)">
          <circle id="Ellipse_4-7" data-name="Ellipse 4" cx="5.309" cy="5.309" r="5.309" transform="translate(0 8.849)" fill="#fff"/>
          <circle id="Ellipse_5-7" data-name="Ellipse 5" cx="4.867" cy="4.867" r="4.867" transform="translate(4.424 3.539)" fill="#fff"/>
          <circle id="Ellipse_6-7" data-name="Ellipse 6" cx="5.309" cy="5.309" r="5.309" transform="translate(10.618 0)" fill="#fff"/>
        </g>
        <g id="Group_8" data-name="Group 8" transform="matrix(0.469, 0.883, -0.883, 0.469, 108.048, 15.043)">
          <circle id="Ellipse_4-8" data-name="Ellipse 4" cx="5.309" cy="5.309" r="5.309" transform="translate(0 8.849)" fill="#fff"/>
          <circle id="Ellipse_5-8" data-name="Ellipse 5" cx="4.867" cy="4.867" r="4.867" transform="translate(4.424 3.539)" fill="#fff"/>
          <circle id="Ellipse_6-8" data-name="Ellipse 6" cx="5.309" cy="5.309" r="5.309" transform="translate(10.618 0)" fill="#fff"/>
        </g>
        <g id="Group_9" data-name="Group 9" transform="matrix(0.469, 0.883, -0.883, 0.469, 120.436, 23.006)">
          <circle id="Ellipse_4-9" data-name="Ellipse 4" cx="5.309" cy="5.309" r="5.309" transform="translate(0 8.849)" fill="#fff"/>
          <circle id="Ellipse_5-9" data-name="Ellipse 5" cx="4.867" cy="4.867" r="4.867" transform="translate(4.424 3.539)" fill="#fff"/>
          <circle id="Ellipse_6-9" data-name="Ellipse 6" cx="5.309" cy="5.309" r="5.309" transform="translate(10.618 0)" fill="#fff"/>
        </g>
      </g>
      <path id="Path_47" data-name="Path 47" d="M557.669,223.926A28.835,28.835,0,0,0,574,228.682c10.057,0,14.033-5.943,23.9-4.755s9.907,7.7,20.277,7.049,11.239-6.921,21.576-8.337,14.234,1.953,17.853,0-3.378-7.812-3.378-7.812-21.238-13.714-45.708-13.183-45.8,10.095-52.171,15.307S557.669,223.926,557.669,223.926Z" transform="translate(-7.118 -2.002)" fill="#ffd7a7"/>
      <g id="meat" transform="translate(548.196 186.752)">
        <g id="Mask_Group_1" data-name="Mask Group 1" transform="matrix(-0.799, -0.602, 0.602, -0.799, 21.394, 26.786)" clip-path="url(#clip-path-3)">
          <g id="Group_10" data-name="Group 10" transform="translate(-0.29 -0.389)">
            <rect id="Rectangle_2" data-name="Rectangle 2" width="7.964" height="4.424" transform="translate(0 10.618)" fill="#e2a051"/>
            <rect id="Rectangle_3" data-name="Rectangle 3" width="7.964" height="6.194" transform="translate(0 4.424)" fill="#c37b25"/>
            <rect id="Rectangle_4" data-name="Rectangle 4" width="7.964" height="4.424" transform="translate(0 0)" fill="#aa691c"/>
          </g>
        </g>
        <g id="Mask_Group_22" data-name="Mask Group 22" transform="matrix(0.799, -0.602, 0.602, 0.799, 12.413, 22.256)" clip-path="url(#clip-path-4)">
          <g id="Group_31" data-name="Group 31" transform="translate(-0.29 -1.226)">
            <rect id="Rectangle_65" data-name="Rectangle 65" width="7.964" height="4.424" transform="translate(0)" fill="#e2a051"/>
            <rect id="Rectangle_66" data-name="Rectangle 66" width="7.964" height="6.194" transform="translate(0 4.424)" fill="#c37b25"/>
            <rect id="Rectangle_67" data-name="Rectangle 67" width="7.964" height="4.424" transform="translate(0 10.618)" fill="#aa691c"/>
          </g>
        </g>
        <g id="Mask_Group_2" data-name="Mask Group 2" transform="matrix(0.799, -0.602, 0.602, 0.799, 23.031, 18.716)" clip-path="url(#clip-path-4)">
          <g id="Group_11" data-name="Group 11" transform="translate(-0.29 -1.226)">
            <rect id="Rectangle_5" data-name="Rectangle 5" width="7.964" height="4.424" transform="translate(0)" fill="#e2a051"/>
            <rect id="Rectangle_6" data-name="Rectangle 6" width="7.964" height="6.194" transform="translate(0 4.424)" fill="#c37b25"/>
            <rect id="Rectangle_7" data-name="Rectangle 7" width="7.964" height="4.424" transform="translate(0 10.618)" fill="#aa691c"/>
          </g>
        </g>
        <g id="Mask_Group_3" data-name="Mask Group 3" transform="matrix(0.799, -0.602, 0.602, 0.799, 22.146, 10.753)" clip-path="url(#clip-path-4)">
          <g id="Group_12" data-name="Group 12" transform="translate(-0.29 -1.226)">
            <rect id="Rectangle_8" data-name="Rectangle 8" width="7.964" height="4.424" transform="translate(0)" fill="#e2a051"/>
            <rect id="Rectangle_9" data-name="Rectangle 9" width="7.964" height="6.194" transform="translate(0 4.424)" fill="#c37b25"/>
            <rect id="Rectangle_10" data-name="Rectangle 10" width="7.964" height="4.424" transform="translate(0 10.618)" fill="#aa691c"/>
          </g>
        </g>
        <g id="Mask_Group_4" data-name="Mask Group 4" transform="translate(39.59 12.956) rotate(41)" clip-path="url(#clip-path-7)">
          <g id="Group_13" data-name="Group 13" transform="translate(-0.29 -1.226)">
            <rect id="Rectangle_11" data-name="Rectangle 11" width="7.964" height="4.424" transform="translate(0 0)" fill="#e2a051"/>
            <rect id="Rectangle_12" data-name="Rectangle 12" width="7.964" height="6.194" transform="translate(0 4.424)" fill="#c37b25"/>
            <rect id="Rectangle_13" data-name="Rectangle 13" width="7.964" height="4.424" transform="translate(0 10.618)" fill="#aa691c"/>
          </g>
        </g>
        <g id="Mask_Group_45" data-name="Mask Group 45" transform="translate(36.936 5.877) rotate(41)" clip-path="url(#clip-path-7)">
          <g id="Group_54" data-name="Group 54" transform="translate(-0.29 -1.226)">
            <rect id="Rectangle_134" data-name="Rectangle 134" width="7.964" height="4.424" transform="translate(0 0)" fill="#e2a051"/>
            <rect id="Rectangle_135" data-name="Rectangle 135" width="7.964" height="6.194" transform="translate(0 4.424)" fill="#c37b25"/>
            <rect id="Rectangle_136" data-name="Rectangle 136" width="7.964" height="4.424" transform="translate(0 10.618)" fill="#aa691c"/>
          </g>
        </g>
        <g id="Mask_Group_26" data-name="Mask Group 26" transform="translate(26.739 41.131) rotate(-106)" clip-path="url(#clip-path-3)">
          <g id="Group_35" data-name="Group 35" transform="translate(-0.29 -0.389)">
            <rect id="Rectangle_77" data-name="Rectangle 77" width="7.964" height="4.424" transform="translate(0 10.618)" fill="#e2a051"/>
            <rect id="Rectangle_78" data-name="Rectangle 78" width="7.964" height="6.194" transform="translate(0 4.424)" fill="#c37b25"/>
            <rect id="Rectangle_79" data-name="Rectangle 79" width="7.964" height="4.424" transform="translate(0 0)" fill="#aa691c"/>
          </g>
        </g>
        <g id="Mask_Group_43" data-name="Mask Group 43" transform="translate(9.042 36.707) rotate(-106)" clip-path="url(#clip-path-3)">
          <g id="Group_52" data-name="Group 52" transform="translate(-0.29 -0.389)">
            <rect id="Rectangle_128" data-name="Rectangle 128" width="7.964" height="4.424" transform="translate(0 10.618)" fill="#e2a051"/>
            <rect id="Rectangle_129" data-name="Rectangle 129" width="7.964" height="6.194" transform="translate(0 4.424)" fill="#c37b25"/>
            <rect id="Rectangle_130" data-name="Rectangle 130" width="7.964" height="4.424" transform="translate(0 0)" fill="#aa691c"/>
          </g>
        </g>
        <g id="Mask_Group_32" data-name="Mask Group 32" transform="translate(51.515 42.016) rotate(-106)" clip-path="url(#clip-path-3)">
          <g id="Group_41" data-name="Group 41" transform="translate(-0.29 -0.389)">
            <rect id="Rectangle_95" data-name="Rectangle 95" width="7.964" height="4.424" transform="translate(0 10.618)" fill="#e2a051"/>
            <rect id="Rectangle_96" data-name="Rectangle 96" width="7.964" height="6.194" transform="translate(0 4.424)" fill="#c37b25"/>
            <rect id="Rectangle_97" data-name="Rectangle 97" width="7.964" height="4.424" transform="translate(0 0)" fill="#aa691c"/>
          </g>
        </g>
        <g id="Mask_Group_38" data-name="Mask Group 38" transform="translate(77.176 38.477) rotate(-106)" clip-path="url(#clip-path-3)">
          <g id="Group_47" data-name="Group 47" transform="translate(-0.29 -0.389)">
            <rect id="Rectangle_113" data-name="Rectangle 113" width="7.964" height="4.424" transform="translate(0 10.618)" fill="#e2a051"/>
            <rect id="Rectangle_114" data-name="Rectangle 114" width="7.964" height="6.194" transform="translate(0 4.424)" fill="#c37b25"/>
            <rect id="Rectangle_115" data-name="Rectangle 115" width="7.964" height="4.424" transform="translate(0 0)" fill="#aa691c"/>
          </g>
        </g>
        <g id="Mask_Group_21" data-name="Mask Group 21" transform="translate(37.821 20.035) rotate(41)" clip-path="url(#clip-path-7)">
          <g id="Group_30" data-name="Group 30" transform="translate(-0.29 -1.226)">
            <rect id="Rectangle_62" data-name="Rectangle 62" width="7.964" height="4.424" transform="translate(0 0)" fill="#e2a051"/>
            <rect id="Rectangle_63" data-name="Rectangle 63" width="7.964" height="6.194" transform="translate(0 4.424)" fill="#c37b25"/>
            <rect id="Rectangle_64" data-name="Rectangle 64" width="7.964" height="4.424" transform="translate(0 10.618)" fill="#aa691c"/>
          </g>
        </g>
        <g id="Mask_Group_23" data-name="Mask Group 23" transform="translate(19.575 39.743) rotate(-106)" clip-path="url(#clip-path-3)">
          <g id="Group_32" data-name="Group 32" transform="translate(-0.29 -0.389)">
            <rect id="Rectangle_68" data-name="Rectangle 68" width="7.964" height="4.424" transform="translate(0 10.618)" fill="#e2a051"/>
            <rect id="Rectangle_69" data-name="Rectangle 69" width="7.964" height="6.194" transform="translate(0 4.424)" fill="#c37b25"/>
            <rect id="Rectangle_70" data-name="Rectangle 70" width="7.964" height="4.424" transform="translate(0 0)" fill="#aa691c"/>
          </g>
        </g>
        <g id="Mask_Group_42" data-name="Mask Group 42" transform="translate(1.878 35.319) rotate(-106)" clip-path="url(#clip-path-3)">
          <g id="Group_51" data-name="Group 51" transform="translate(-0.29 -0.389)">
            <rect id="Rectangle_125" data-name="Rectangle 125" width="7.964" height="4.424" transform="translate(0 10.618)" fill="#e2a051"/>
            <rect id="Rectangle_126" data-name="Rectangle 126" width="7.964" height="6.194" transform="translate(0 4.424)" fill="#c37b25"/>
            <rect id="Rectangle_127" data-name="Rectangle 127" width="7.964" height="4.424" transform="translate(0 0)" fill="#aa691c"/>
          </g>
        </g>
        <g id="Mask_Group_29" data-name="Mask Group 29" transform="translate(44.352 40.628) rotate(-106)" clip-path="url(#clip-path-3)">
          <g id="Group_38" data-name="Group 38" transform="translate(-0.29 -0.389)">
            <rect id="Rectangle_86" data-name="Rectangle 86" width="7.964" height="4.424" transform="translate(0 10.618)" fill="#e2a051"/>
            <rect id="Rectangle_87" data-name="Rectangle 87" width="7.964" height="6.194" transform="translate(0 4.424)" fill="#c37b25"/>
            <rect id="Rectangle_88" data-name="Rectangle 88" width="7.964" height="4.424" transform="translate(0 0)" fill="#aa691c"/>
          </g>
        </g>
        <g id="Mask_Group_35" data-name="Mask Group 35" transform="translate(70.013 37.089) rotate(-106)" clip-path="url(#clip-path-3)">
          <g id="Group_44" data-name="Group 44" transform="translate(-0.29 -0.389)">
            <rect id="Rectangle_104" data-name="Rectangle 104" width="7.964" height="4.424" transform="translate(0 10.618)" fill="#e2a051"/>
            <rect id="Rectangle_105" data-name="Rectangle 105" width="7.964" height="6.194" transform="translate(0 4.424)" fill="#c37b25"/>
            <rect id="Rectangle_106" data-name="Rectangle 106" width="7.964" height="4.424" transform="translate(0 0)" fill="#aa691c"/>
          </g>
        </g>
        <g id="Mask_Group_5" data-name="Mask Group 5" transform="translate(52.863 7.647) rotate(41)" clip-path="url(#clip-path-7)">
          <g id="Group_14" data-name="Group 14" transform="translate(-0.29 -1.226)">
            <rect id="Rectangle_14" data-name="Rectangle 14" width="7.964" height="4.424" transform="translate(0 0)" fill="#e2a051"/>
            <rect id="Rectangle_15" data-name="Rectangle 15" width="7.964" height="6.194" transform="translate(0 4.424)" fill="#c37b25"/>
            <rect id="Rectangle_16" data-name="Rectangle 16" width="7.964" height="4.424" transform="translate(0 10.618)" fill="#aa691c"/>
          </g>
        </g>
        <g id="Mask_Group_25" data-name="Mask Group 25" transform="translate(37.16 31.346) rotate(-106)" clip-path="url(#clip-path-3)">
          <g id="Group_34" data-name="Group 34" transform="translate(-0.29 -0.389)">
            <rect id="Rectangle_74" data-name="Rectangle 74" width="7.964" height="4.424" transform="translate(0 10.618)" fill="#e2a051"/>
            <rect id="Rectangle_75" data-name="Rectangle 75" width="7.964" height="6.194" transform="translate(0 4.424)" fill="#c37b25"/>
            <rect id="Rectangle_76" data-name="Rectangle 76" width="7.964" height="4.424" transform="translate(0 0)" fill="#aa691c"/>
          </g>
        </g>
        <g id="Mask_Group_31" data-name="Mask Group 31" transform="translate(61.936 32.23) rotate(-106)" clip-path="url(#clip-path-3)">
          <g id="Group_40" data-name="Group 40" transform="translate(-0.29 -0.389)">
            <rect id="Rectangle_92" data-name="Rectangle 92" width="7.964" height="4.424" transform="translate(0 10.618)" fill="#e2a051"/>
            <rect id="Rectangle_93" data-name="Rectangle 93" width="7.964" height="6.194" transform="translate(0 4.424)" fill="#c37b25"/>
            <rect id="Rectangle_94" data-name="Rectangle 94" width="7.964" height="4.424" transform="translate(0 0)" fill="#aa691c"/>
          </g>
        </g>
        <g id="Mask_Group_37" data-name="Mask Group 37" transform="translate(87.597 28.691) rotate(-106)" clip-path="url(#clip-path-3)">
          <g id="Group_46" data-name="Group 46" transform="translate(-0.29 -0.389)">
            <rect id="Rectangle_110" data-name="Rectangle 110" width="7.964" height="4.424" transform="translate(0 10.618)" fill="#e2a051"/>
            <rect id="Rectangle_111" data-name="Rectangle 111" width="7.964" height="6.194" transform="translate(0 4.424)" fill="#c37b25"/>
            <rect id="Rectangle_112" data-name="Rectangle 112" width="7.964" height="4.424" transform="translate(0 0)" fill="#aa691c"/>
          </g>
        </g>
        <g id="Mask_Group_16" data-name="Mask Group 16" transform="translate(44.772 18.712) rotate(-139)" clip-path="url(#clip-path-22)">
          <g id="Group_25" data-name="Group 25" transform="translate(-0.29 -1.226)">
            <rect id="Rectangle_47" data-name="Rectangle 47" width="7.964" height="4.424" transform="translate(0 0)" fill="#e2a051"/>
            <rect id="Rectangle_48" data-name="Rectangle 48" width="7.964" height="6.194" transform="translate(0 4.424)" fill="#c37b25"/>
            <rect id="Rectangle_49" data-name="Rectangle 49" width="7.964" height="4.424" transform="translate(0 10.618)" fill="#aa691c"/>
          </g>
        </g>
        <g id="Mask_Group_27" data-name="Mask Group 27" transform="translate(49.528 26.6) rotate(74)" clip-path="url(#clip-path-3)">
          <g id="Group_36" data-name="Group 36" transform="translate(-0.29 -0.389)">
            <rect id="Rectangle_80" data-name="Rectangle 80" width="7.964" height="4.424" transform="translate(0 10.618)" fill="#e2a051"/>
            <rect id="Rectangle_81" data-name="Rectangle 81" width="7.964" height="6.194" transform="translate(0 4.424)" fill="#c37b25"/>
            <rect id="Rectangle_82" data-name="Rectangle 82" width="7.964" height="4.424" transform="translate(0 0)" fill="#aa691c"/>
          </g>
        </g>
        <g id="Mask_Group_44" data-name="Mask Group 44" transform="translate(31.831 22.176) rotate(74)" clip-path="url(#clip-path-3)">
          <g id="Group_53" data-name="Group 53" transform="translate(-0.29 -0.389)">
            <rect id="Rectangle_131" data-name="Rectangle 131" width="7.964" height="4.424" transform="translate(0 10.618)" fill="#e2a051"/>
            <rect id="Rectangle_132" data-name="Rectangle 132" width="7.964" height="6.194" transform="translate(0 4.424)" fill="#c37b25"/>
            <rect id="Rectangle_133" data-name="Rectangle 133" width="7.964" height="4.424" transform="translate(0 0)" fill="#aa691c"/>
          </g>
        </g>
        <g id="Mask_Group_33" data-name="Mask Group 33" transform="translate(74.304 27.485) rotate(74)" clip-path="url(#clip-path-3)">
          <g id="Group_42" data-name="Group 42" transform="translate(-0.29 -0.389)">
            <rect id="Rectangle_98" data-name="Rectangle 98" width="7.964" height="4.424" transform="translate(0 10.618)" fill="#e2a051"/>
            <rect id="Rectangle_99" data-name="Rectangle 99" width="7.964" height="6.194" transform="translate(0 4.424)" fill="#c37b25"/>
            <rect id="Rectangle_100" data-name="Rectangle 100" width="7.964" height="4.424" transform="translate(0 0)" fill="#aa691c"/>
          </g>
        </g>
        <g id="Mask_Group_39" data-name="Mask Group 39" transform="translate(99.965 23.945) rotate(74)" clip-path="url(#clip-path-3)">
          <g id="Group_48" data-name="Group 48" transform="translate(-0.29 -0.389)">
            <rect id="Rectangle_116" data-name="Rectangle 116" width="7.964" height="4.424" transform="translate(0 10.618)" fill="#e2a051"/>
            <rect id="Rectangle_117" data-name="Rectangle 117" width="7.964" height="6.194" transform="translate(0 4.424)" fill="#c37b25"/>
            <rect id="Rectangle_118" data-name="Rectangle 118" width="7.964" height="4.424" transform="translate(0 0)" fill="#aa691c"/>
          </g>
        </g>
        <g id="Mask_Group_7" data-name="Mask Group 7" transform="matrix(-0.996, -0.087, 0.087, -0.996, 61.802, 27.244)" clip-path="url(#clip-path-3)">
          <g id="Group_16" data-name="Group 16" transform="translate(-0.29 -0.389)">
            <rect id="Rectangle_20" data-name="Rectangle 20" width="7.964" height="4.424" transform="translate(0 10.618)" fill="#e2a051"/>
            <rect id="Rectangle_21" data-name="Rectangle 21" width="7.964" height="6.194" transform="translate(0 4.424)" fill="#c37b25"/>
            <rect id="Rectangle_22" data-name="Rectangle 22" width="7.964" height="4.424" transform="translate(0 0)" fill="#aa691c"/>
          </g>
        </g>
        <g id="Mask_Group_9" data-name="Mask Group 9" transform="matrix(0.996, -0.087, 0.087, 0.996, 61.208, 5.903)" clip-path="url(#clip-path-22)">
          <g id="Group_18" data-name="Group 18" transform="translate(-0.29 -1.226)">
            <rect id="Rectangle_26" data-name="Rectangle 26" width="7.964" height="4.424" transform="translate(0 0)" fill="#e2a051"/>
            <rect id="Rectangle_27" data-name="Rectangle 27" width="7.964" height="6.194" transform="translate(0 4.424)" fill="#c37b25"/>
            <rect id="Rectangle_28" data-name="Rectangle 28" width="7.964" height="4.424" transform="translate(0 10.618)" fill="#aa691c"/>
          </g>
        </g>
        <g id="Mask_Group_17" data-name="Mask Group 17" transform="matrix(0.996, -0.087, 0.087, 0.996, 52.36, 0.594)" clip-path="url(#clip-path-22)">
          <g id="Group_26" data-name="Group 26" transform="translate(-0.29 -1.226)">
            <rect id="Rectangle_50" data-name="Rectangle 50" width="7.964" height="4.424" transform="translate(0 0)" fill="#e2a051"/>
            <rect id="Rectangle_51" data-name="Rectangle 51" width="7.964" height="6.194" transform="translate(0 4.424)" fill="#c37b25"/>
            <rect id="Rectangle_52" data-name="Rectangle 52" width="7.964" height="4.424" transform="translate(0 10.618)" fill="#aa691c"/>
          </g>
        </g>
        <g id="Mask_Group_10" data-name="Mask Group 10" transform="translate(58.743 18.928) rotate(25)" clip-path="url(#clip-path-22)">
          <g id="Group_19" data-name="Group 19" transform="translate(-0.29 -1.226)">
            <rect id="Rectangle_29" data-name="Rectangle 29" width="7.964" height="4.424" transform="translate(0 0)" fill="#e2a051"/>
            <rect id="Rectangle_30" data-name="Rectangle 30" width="7.964" height="6.194" transform="translate(0 4.424)" fill="#c37b25"/>
            <rect id="Rectangle_31" data-name="Rectangle 31" width="7.964" height="4.424" transform="translate(0 10.618)" fill="#aa691c"/>
          </g>
        </g>
        <g id="Mask_Group_11" data-name="Mask Group 11" transform="translate(78.21 18.858) rotate(92)" clip-path="url(#clip-path-22)">
          <g id="Group_20" data-name="Group 20" transform="translate(-0.29 -1.226)">
            <rect id="Rectangle_32" data-name="Rectangle 32" width="7.964" height="4.424" transform="translate(0 0)" fill="#e2a051"/>
            <rect id="Rectangle_33" data-name="Rectangle 33" width="7.964" height="6.194" transform="translate(0 4.424)" fill="#c37b25"/>
            <rect id="Rectangle_34" data-name="Rectangle 34" width="7.964" height="4.424" transform="translate(0 10.618)" fill="#aa691c"/>
          </g>
        </g>
        <g id="Mask_Group_19" data-name="Mask Group 19" transform="translate(85.289 23.282) rotate(92)" clip-path="url(#clip-path-22)">
          <g id="Group_28" data-name="Group 28" transform="translate(-0.29 -1.226)">
            <rect id="Rectangle_56" data-name="Rectangle 56" width="7.964" height="4.424" transform="translate(0 0)" fill="#e2a051"/>
            <rect id="Rectangle_57" data-name="Rectangle 57" width="7.964" height="6.194" transform="translate(0 4.424)" fill="#c37b25"/>
            <rect id="Rectangle_58" data-name="Rectangle 58" width="7.964" height="4.424" transform="translate(0 10.618)" fill="#aa691c"/>
          </g>
        </g>
        <g id="Mask_Group_12" data-name="Mask Group 12" transform="translate(70.181 22.835) rotate(45)" clip-path="url(#clip-path-22)">
          <g id="Group_21" data-name="Group 21" transform="translate(-0.29 -1.226)">
            <rect id="Rectangle_35" data-name="Rectangle 35" width="7.964" height="4.424" transform="translate(0 0)" fill="#e2a051"/>
            <rect id="Rectangle_36" data-name="Rectangle 36" width="7.964" height="6.194" transform="translate(0 4.424)" fill="#c37b25"/>
            <rect id="Rectangle_37" data-name="Rectangle 37" width="7.964" height="4.424" transform="translate(0 10.618)" fill="#aa691c"/>
          </g>
        </g>
        <g id="Mask_Group_13" data-name="Mask Group 13" transform="matrix(0.545, 0.839, -0.839, 0.545, 75.157, 8.435)" clip-path="url(#clip-path-3)">
          <g id="Group_22" data-name="Group 22" transform="translate(-0.29 -0.389)">
            <rect id="Rectangle_38" data-name="Rectangle 38" width="7.964" height="4.424" transform="translate(0 10.618)" fill="#e2a051"/>
            <rect id="Rectangle_39" data-name="Rectangle 39" width="7.964" height="6.194" transform="translate(0 4.424)" fill="#c37b25"/>
            <rect id="Rectangle_40" data-name="Rectangle 40" width="7.964" height="4.424" transform="translate(0 0)" fill="#aa691c"/>
          </g>
        </g>
        <g id="Mask_Group_14" data-name="Mask Group 14" transform="translate(86.354 9.542) rotate(71)" clip-path="url(#clip-path-3)">
          <g id="Group_23" data-name="Group 23" transform="translate(-0.29 -0.389)">
            <rect id="Rectangle_41" data-name="Rectangle 41" width="7.964" height="4.424" transform="translate(0 10.618)" fill="#e2a051"/>
            <rect id="Rectangle_42" data-name="Rectangle 42" width="7.964" height="6.194" transform="translate(0 4.424)" fill="#c37b25"/>
            <rect id="Rectangle_43" data-name="Rectangle 43" width="7.964" height="4.424" transform="translate(0 0)" fill="#aa691c"/>
          </g>
        </g>
        <g id="Mask_Group_18" data-name="Mask Group 18" transform="translate(94.318 17.506) rotate(71)" clip-path="url(#clip-path-3)">
          <g id="Group_27" data-name="Group 27" transform="translate(-0.29 -0.389)">
            <rect id="Rectangle_53" data-name="Rectangle 53" width="7.964" height="4.424" transform="translate(0 10.618)" fill="#e2a051"/>
            <rect id="Rectangle_54" data-name="Rectangle 54" width="7.964" height="6.194" transform="translate(0 4.424)" fill="#c37b25"/>
            <rect id="Rectangle_55" data-name="Rectangle 55" width="7.964" height="4.424" transform="translate(0 0)" fill="#aa691c"/>
          </g>
        </g>
        <g id="Mask_Group_20" data-name="Mask Group 20" transform="translate(92.548 11.312) rotate(71)" clip-path="url(#clip-path-3)">
          <g id="Group_29" data-name="Group 29" transform="translate(-0.29 -0.389)">
            <rect id="Rectangle_59" data-name="Rectangle 59" width="7.964" height="4.424" transform="translate(0 10.618)" fill="#e2a051"/>
            <rect id="Rectangle_60" data-name="Rectangle 60" width="7.964" height="6.194" transform="translate(0 4.424)" fill="#c37b25"/>
            <rect id="Rectangle_61" data-name="Rectangle 61" width="7.964" height="4.424" transform="translate(0 0)" fill="#aa691c"/>
          </g>
        </g>
        <g id="Mask_Group_15" data-name="Mask Group 15" transform="translate(57.154 15.736) rotate(71)" clip-path="url(#clip-path-3)">
          <g id="Group_24" data-name="Group 24" transform="translate(-0.29 -0.389)">
            <rect id="Rectangle_44" data-name="Rectangle 44" width="7.964" height="4.424" transform="translate(0 10.618)" fill="#e2a051"/>
            <rect id="Rectangle_45" data-name="Rectangle 45" width="7.964" height="6.194" transform="translate(0 4.424)" fill="#c37b25"/>
            <rect id="Rectangle_46" data-name="Rectangle 46" width="7.964" height="4.424" transform="translate(0 0)" fill="#aa691c"/>
          </g>
        </g>
        <g id="Mask_Group_8" data-name="Mask Group 8" transform="translate(39.203 13.714) rotate(-114)" clip-path="url(#clip-path-3)">
          <g id="Group_17" data-name="Group 17" transform="translate(-0.29 -0.389)">
            <rect id="Rectangle_23" data-name="Rectangle 23" width="7.964" height="4.424" transform="translate(0 10.618)" fill="#e2a051"/>
            <rect id="Rectangle_24" data-name="Rectangle 24" width="7.964" height="6.194" transform="translate(0 4.424)" fill="#c37b25"/>
            <rect id="Rectangle_25" data-name="Rectangle 25" width="7.964" height="4.424" transform="translate(0 0)" fill="#aa691c"/>
          </g>
        </g>
        <g id="Mask_Group_28" data-name="Mask Group 28" transform="matrix(0.656, 0.755, -0.755, 0.656, 48.931, 28.651)" clip-path="url(#clip-path-22)">
          <g id="Group_37" data-name="Group 37" transform="translate(-0.29 -1.226)">
            <rect id="Rectangle_83" data-name="Rectangle 83" width="7.964" height="4.424" transform="translate(0 0)" fill="#e2a051"/>
            <rect id="Rectangle_84" data-name="Rectangle 84" width="7.964" height="6.194" transform="translate(0 4.424)" fill="#c37b25"/>
            <rect id="Rectangle_85" data-name="Rectangle 85" width="7.964" height="4.424" transform="translate(0 10.618)" fill="#aa691c"/>
          </g>
        </g>
        <g id="Mask_Group_34" data-name="Mask Group 34" transform="matrix(0.656, 0.755, -0.755, 0.656, 73.707, 29.536)" clip-path="url(#clip-path-22)">
          <g id="Group_43" data-name="Group 43" transform="translate(-0.29 -1.226)">
            <rect id="Rectangle_101" data-name="Rectangle 101" width="7.964" height="4.424" transform="translate(0 0)" fill="#e2a051"/>
            <rect id="Rectangle_102" data-name="Rectangle 102" width="7.964" height="6.194" transform="translate(0 4.424)" fill="#c37b25"/>
            <rect id="Rectangle_103" data-name="Rectangle 103" width="7.964" height="4.424" transform="translate(0 10.618)" fill="#aa691c"/>
          </g>
        </g>
        <g id="Mask_Group_40" data-name="Mask Group 40" transform="matrix(0.656, 0.755, -0.755, 0.656, 99.368, 25.997)" clip-path="url(#clip-path-22)">
          <g id="Group_49" data-name="Group 49" transform="translate(-0.29 -1.226)">
            <rect id="Rectangle_119" data-name="Rectangle 119" width="7.964" height="4.424" transform="translate(0 0)" fill="#e2a051"/>
            <rect id="Rectangle_120" data-name="Rectangle 120" width="7.964" height="6.194" transform="translate(0 4.424)" fill="#c37b25"/>
            <rect id="Rectangle_121" data-name="Rectangle 121" width="7.964" height="4.424" transform="translate(0 10.618)" fill="#aa691c"/>
          </g>
        </g>
        <g id="Mask_Group_6" data-name="Mask Group 6" transform="translate(53.581 29.285) rotate(139)" clip-path="url(#clip-path-3)">
          <g id="Group_15" data-name="Group 15" transform="translate(-0.29 -0.389)">
            <rect id="Rectangle_17" data-name="Rectangle 17" width="7.964" height="4.424" transform="translate(0 10.618)" fill="#e2a051"/>
            <rect id="Rectangle_18" data-name="Rectangle 18" width="7.964" height="6.194" transform="translate(0 4.424)" fill="#c37b25"/>
            <rect id="Rectangle_19" data-name="Rectangle 19" width="7.964" height="4.424" transform="translate(0 0)" fill="#aa691c"/>
          </g>
        </g>
        <g id="Mask_Group_24" data-name="Mask Group 24" transform="translate(36.223 30.116) rotate(156)" clip-path="url(#clip-path-22)">
          <g id="Group_33" data-name="Group 33" transform="translate(-0.29 -1.226)">
            <rect id="Rectangle_71" data-name="Rectangle 71" width="7.964" height="4.424" transform="translate(0 0)" fill="#e2a051"/>
            <rect id="Rectangle_72" data-name="Rectangle 72" width="7.964" height="6.194" transform="translate(0 4.424)" fill="#c37b25"/>
            <rect id="Rectangle_73" data-name="Rectangle 73" width="7.964" height="4.424" transform="translate(0 10.618)" fill="#aa691c"/>
          </g>
        </g>
        <g id="Mask_Group_41" data-name="Mask Group 41" transform="translate(18.526 25.692) rotate(156)" clip-path="url(#clip-path-22)">
          <g id="Group_50" data-name="Group 50" transform="translate(-0.29 -1.226)">
            <rect id="Rectangle_122" data-name="Rectangle 122" width="7.964" height="4.424" transform="translate(0 0)" fill="#e2a051"/>
            <rect id="Rectangle_123" data-name="Rectangle 123" width="7.964" height="6.194" transform="translate(0 4.424)" fill="#c37b25"/>
            <rect id="Rectangle_124" data-name="Rectangle 124" width="7.964" height="4.424" transform="translate(0 10.618)" fill="#aa691c"/>
          </g>
        </g>
        <g id="Mask_Group_30" data-name="Mask Group 30" transform="translate(60.999 31.001) rotate(156)" clip-path="url(#clip-path-22)">
          <g id="Group_39" data-name="Group 39" transform="translate(-0.29 -1.226)">
            <rect id="Rectangle_89" data-name="Rectangle 89" width="7.964" height="4.424" transform="translate(0 0)" fill="#e2a051"/>
            <rect id="Rectangle_90" data-name="Rectangle 90" width="7.964" height="6.194" transform="translate(0 4.424)" fill="#c37b25"/>
            <rect id="Rectangle_91" data-name="Rectangle 91" width="7.964" height="4.424" transform="translate(0 10.618)" fill="#aa691c"/>
          </g>
        </g>
        <g id="Mask_Group_36" data-name="Mask Group 36" transform="translate(86.66 27.462) rotate(156)" clip-path="url(#clip-path-22)">
          <g id="Group_45" data-name="Group 45" transform="translate(-0.29 -1.226)">
            <rect id="Rectangle_107" data-name="Rectangle 107" width="7.964" height="4.424" transform="translate(0 0)" fill="#e2a051"/>
            <rect id="Rectangle_108" data-name="Rectangle 108" width="7.964" height="6.194" transform="translate(0 4.424)" fill="#c37b25"/>
            <rect id="Rectangle_109" data-name="Rectangle 109" width="7.964" height="4.424" transform="translate(0 10.618)" fill="#aa691c"/>
          </g>
        </g>
      </g>
    </g>
  </g>
</svg>
