<svg xmlns="http://www.w3.org/2000/svg" xmlns:xlink="http://www.w3.org/1999/xlink" width="147" height="105" viewBox="0 0 147 105">
  <defs>
    <clipPath id="clip-path">
      <rect id="Rectangle_434" data-name="Rectangle 434" width="147" height="105" transform="translate(-437 141)" fill="none" opacity="0.499"/>
    </clipPath>
    <clipPath id="clip-path-2">
      <rect id="Rectangle_160" data-name="Rectangle 160" width="219" height="128" transform="translate(0 0.269)" fill="#377c2b"/>
    </clipPath>
    <radialGradient id="radial-gradient" cx="0.523" cy="0.871" r="0.707" gradientTransform="translate(-0.001 0) rotate(-0.054)" gradientUnits="objectBoundingBox">
      <stop offset="0" stop-color="#46883a"/>
      <stop offset="1" stop-color="#1c3e16"/>
    </radialGradient>
    <clipPath id="clip-path-3">
      <path id="Path_146" data-name="Path 146" d="M544.972,222.468s12.256-25.958,61.4-27.435,66.067,27.435,66.067,27.435a100.963,100.963,0,0,1-20.533,5.1,330.454,330.454,0,0,1-44.1,1.99c-22.657-.337-41.4-2.35-46.527-3.339C547.391,223.538,544.972,222.468,544.972,222.468Z" transform="translate(-6.984 3.947)" fill="none" opacity="0.765"/>
    </clipPath>
    <clipPath id="clip-path-4">
      <path id="Path_54" data-name="Path 54" d="M.595,12.671c.943.812,5.24.756,5.24.756s.968-.094.968-3.246S6.986,2.1,5.835.815.39-.06.045.815s1.4,4.214,1.536,7.178S-.348,11.86.595,12.671Z" transform="translate(0 0)" fill="none"/>
    </clipPath>
    <clipPath id="clip-path-5">
      <path id="Path_55" data-name="Path 55" d="M.6.757C1.538-.055,5.836,0,5.836,0S6.8.094,6.8,3.247s.182,8.085-.968,9.365-5.445.876-5.79,0S1.444,8.4,1.581,5.434-.348,1.568.6.757Z" fill="none"/>
    </clipPath>
    <clipPath id="clip-path-8">
      <path id="Path_58" data-name="Path 58" d="M.6.757C1.538-.055,5.836,0,5.836,0S6.8.094,6.8,3.247s.182,8.085-.968,9.365-5.445.876-5.79,0S1.444,8.4,1.581,5.434-.348,1.568.6.757Z" transform="translate(0 0)" fill="none"/>
    </clipPath>
    <clipPath id="clip-path-23">
      <path id="Path_73" data-name="Path 73" d="M.595.757C1.538-.055,5.835,0,5.835,0S6.8.094,6.8,3.247s.183,8.085-.968,9.365-5.445.876-5.79,0S1.444,8.4,1.581,5.434-.348,1.568.595.757Z" transform="translate(0 0)" fill="none"/>
    </clipPath>
  </defs>
  <g id="Mask_Group_143" data-name="Mask Group 143" transform="translate(437 -141)" clip-path="url(#clip-path)">
    <g id="ru_ro_fan" data-name="ru ro fan" transform="translate(-965 -42)">
      <g id="Mask_Group_49" data-name="Mask Group 49" transform="translate(492 224.731)" clip-path="url(#clip-path-2)">
        <path id="Polygon_2" data-name="Polygon 2" d="M25.911,2.081a2,2,0,0,1,3.179,0L52.545,32.786A2,2,0,0,1,50.955,36H4.045a2,2,0,0,1-1.589-3.214Z" transform="translate(84 21.269)" fill="#377c2b"/>
        <ellipse id="Ellipse_7" data-name="Ellipse 7" cx="76.5" cy="86.5" rx="76.5" ry="86.5" transform="translate(34 -118.731)" fill="url(#radial-gradient)"/>
      </g>
      <g id="rim" transform="translate(530 211)" fill="none" stroke="#4b913e" stroke-width="5">
        <ellipse cx="71.5" cy="13.5" rx="71.5" ry="13.5" stroke="none"/>
        <ellipse cx="71.5" cy="13.5" rx="69" ry="11" fill="none"/>
      </g>
      <ellipse id="Ellipse_8" data-name="Ellipse 8" cx="70" cy="11" rx="70" ry="11" transform="translate(532 213)" fill="#f09898"/>
      <g id="Mask_Group_142" data-name="Mask Group 142" transform="translate(0 1.857)" clip-path="url(#clip-path-3)">
        <g id="Group_124" data-name="Group 124" transform="translate(537 188.264)">
          <g id="Ellipse_9" data-name="Ellipse 9" transform="translate(0 -0.122)" fill="#fdf0a4" stroke="rgba(87,86,86,0.8)" stroke-width="0.7">
            <ellipse cx="64.5" cy="35.5" rx="64.5" ry="35.5" stroke="none"/>
            <ellipse cx="64.5" cy="35.5" rx="64.15" ry="35.15" fill="none"/>
          </g>
          <g id="Ellipse_9-2" data-name="Ellipse 9" transform="translate(0 5.878)" fill="#fdf0a4" stroke="rgba(87,86,86,0.8)" stroke-width="0.7">
            <ellipse cx="64.5" cy="35.5" rx="64.5" ry="35.5" stroke="none"/>
            <ellipse cx="64.5" cy="35.5" rx="64.15" ry="35.15" fill="none"/>
          </g>
          <g id="Ellipse_9-3" data-name="Ellipse 9" transform="translate(0 11.878)" fill="#fdf0a4" stroke="rgba(87,86,86,0.8)" stroke-width="0.7">
            <ellipse cx="64.5" cy="35.5" rx="64.5" ry="35.5" stroke="none"/>
            <ellipse cx="64.5" cy="35.5" rx="64.15" ry="35.15" fill="none"/>
          </g>
          <g id="Ellipse_9-4" data-name="Ellipse 9" transform="translate(0 17.878)" fill="#fdf0a4" stroke="rgba(87,86,86,0.8)" stroke-width="0.7">
            <ellipse cx="64.5" cy="35.5" rx="64.5" ry="35.5" stroke="none"/>
            <ellipse cx="64.5" cy="35.5" rx="64.15" ry="35.15" fill="none"/>
          </g>
          <g id="Ellipse_9-5" data-name="Ellipse 9" transform="translate(0 23.878)" fill="#fdf0a4" stroke="rgba(87,86,86,0.8)" stroke-width="0.7">
            <ellipse cx="64.5" cy="35.5" rx="64.5" ry="35.5" stroke="none"/>
            <ellipse cx="64.5" cy="35.5" rx="64.15" ry="35.15" fill="none"/>
          </g>
          <g id="Ellipse_9-6" data-name="Ellipse 9" transform="translate(0 28.878)" fill="#fdf0a4" stroke="rgba(87,86,86,0.8)" stroke-width="0.7">
            <ellipse cx="64.5" cy="36" rx="64.5" ry="36" stroke="none"/>
            <ellipse cx="64.5" cy="36" rx="64.15" ry="35.65" fill="none"/>
          </g>
          <g id="Ellipse_9-7" data-name="Ellipse 9" transform="translate(0 34.878)" fill="#fdf0a4" stroke="rgba(87,86,86,0.8)" stroke-width="0.7">
            <ellipse cx="64.5" cy="35.5" rx="64.5" ry="35.5" stroke="none"/>
            <ellipse cx="64.5" cy="35.5" rx="64.15" ry="35.15" fill="none"/>
          </g>
          <g id="Ellipse_9-8" data-name="Ellipse 9" transform="translate(0 40.878)" fill="#fdf0a4" stroke="rgba(87,86,86,0.8)" stroke-width="0.7">
            <ellipse cx="64.5" cy="35.5" rx="64.5" ry="35.5" stroke="none"/>
            <ellipse cx="64.5" cy="35.5" rx="64.15" ry="35.15" fill="none"/>
          </g>
          <g id="Ellipse_9-9" data-name="Ellipse 9" transform="translate(0 46.878)" fill="#fdf0a4" stroke="rgba(87,86,86,0.8)" stroke-width="0.7">
            <ellipse cx="64.5" cy="35.5" rx="64.5" ry="35.5" stroke="none"/>
            <ellipse cx="64.5" cy="35.5" rx="64.15" ry="35.15" fill="none"/>
          </g>
        </g>
      </g>
      <path id="Path_53" data-name="Path 53" d="M557.669,223.926A28.835,28.835,0,0,0,574,228.682c10.057,0,14.033-5.943,23.9-4.755s9.907,7.7,20.277,7.049,11.239-6.921,21.576-8.337,14.234,1.953,17.853,0-3.378-7.812-3.378-7.812-21.238-13.714-45.708-13.183-45.8,10.095-52.171,15.307S557.669,223.926,557.669,223.926Z" transform="translate(-7.118 -2.002)" fill="#ffd7a7"/>
      <g id="meat" transform="translate(548.196 186.752)">
        <g id="Mask_Group_50" data-name="Mask Group 50" transform="matrix(-0.799, -0.602, 0.602, -0.799, 21.394, 26.786)" clip-path="url(#clip-path-4)">
          <g id="Group_79" data-name="Group 79" transform="translate(-0.29 -0.389)">
            <rect id="Rectangle_161" data-name="Rectangle 161" width="7.964" height="4.424" transform="translate(0 10.618)" fill="#e2a051"/>
            <rect id="Rectangle_162" data-name="Rectangle 162" width="7.964" height="6.194" transform="translate(0 4.424)" fill="#c37b25"/>
            <rect id="Rectangle_163" data-name="Rectangle 163" width="7.964" height="4.424" transform="translate(0 0)" fill="#aa691c"/>
          </g>
        </g>
        <g id="Mask_Group_51" data-name="Mask Group 51" transform="matrix(0.799, -0.602, 0.602, 0.799, 12.413, 22.256)" clip-path="url(#clip-path-5)">
          <g id="Group_80" data-name="Group 80" transform="translate(-0.29 -1.226)">
            <rect id="Rectangle_164" data-name="Rectangle 164" width="7.964" height="4.424" transform="translate(0)" fill="#e2a051"/>
            <rect id="Rectangle_165" data-name="Rectangle 165" width="7.964" height="6.194" transform="translate(0 4.424)" fill="#c37b25"/>
            <rect id="Rectangle_166" data-name="Rectangle 166" width="7.964" height="4.424" transform="translate(0 10.618)" fill="#aa691c"/>
          </g>
        </g>
        <g id="Mask_Group_52" data-name="Mask Group 52" transform="matrix(0.799, -0.602, 0.602, 0.799, 23.031, 18.716)" clip-path="url(#clip-path-5)">
          <g id="Group_81" data-name="Group 81" transform="translate(-0.29 -1.226)">
            <rect id="Rectangle_167" data-name="Rectangle 167" width="7.964" height="4.424" transform="translate(0)" fill="#e2a051"/>
            <rect id="Rectangle_168" data-name="Rectangle 168" width="7.964" height="6.194" transform="translate(0 4.424)" fill="#c37b25"/>
            <rect id="Rectangle_169" data-name="Rectangle 169" width="7.964" height="4.424" transform="translate(0 10.618)" fill="#aa691c"/>
          </g>
        </g>
        <g id="Mask_Group_53" data-name="Mask Group 53" transform="matrix(0.799, -0.602, 0.602, 0.799, 22.146, 10.753)" clip-path="url(#clip-path-5)">
          <g id="Group_82" data-name="Group 82" transform="translate(-0.29 -1.226)">
            <rect id="Rectangle_170" data-name="Rectangle 170" width="7.964" height="4.424" transform="translate(0)" fill="#e2a051"/>
            <rect id="Rectangle_171" data-name="Rectangle 171" width="7.964" height="6.194" transform="translate(0 4.424)" fill="#c37b25"/>
            <rect id="Rectangle_172" data-name="Rectangle 172" width="7.964" height="4.424" transform="translate(0 10.618)" fill="#aa691c"/>
          </g>
        </g>
        <g id="Mask_Group_54" data-name="Mask Group 54" transform="translate(39.59 12.956) rotate(41)" clip-path="url(#clip-path-8)">
          <g id="Group_83" data-name="Group 83" transform="translate(-0.29 -1.226)">
            <rect id="Rectangle_173" data-name="Rectangle 173" width="7.964" height="4.424" transform="translate(0 0)" fill="#e2a051"/>
            <rect id="Rectangle_174" data-name="Rectangle 174" width="7.964" height="6.194" transform="translate(0 4.424)" fill="#c37b25"/>
            <rect id="Rectangle_175" data-name="Rectangle 175" width="7.964" height="4.424" transform="translate(0 10.618)" fill="#aa691c"/>
          </g>
        </g>
        <g id="Mask_Group_55" data-name="Mask Group 55" transform="translate(36.936 5.877) rotate(41)" clip-path="url(#clip-path-8)">
          <g id="Group_84" data-name="Group 84" transform="translate(-0.29 -1.226)">
            <rect id="Rectangle_176" data-name="Rectangle 176" width="7.964" height="4.424" transform="translate(0 0)" fill="#e2a051"/>
            <rect id="Rectangle_177" data-name="Rectangle 177" width="7.964" height="6.194" transform="translate(0 4.424)" fill="#c37b25"/>
            <rect id="Rectangle_178" data-name="Rectangle 178" width="7.964" height="4.424" transform="translate(0 10.618)" fill="#aa691c"/>
          </g>
        </g>
        <g id="Mask_Group_56" data-name="Mask Group 56" transform="translate(26.739 41.131) rotate(-106)" clip-path="url(#clip-path-4)">
          <g id="Group_85" data-name="Group 85" transform="translate(-0.29 -0.389)">
            <rect id="Rectangle_179" data-name="Rectangle 179" width="7.964" height="4.424" transform="translate(0 10.618)" fill="#e2a051"/>
            <rect id="Rectangle_180" data-name="Rectangle 180" width="7.964" height="6.194" transform="translate(0 4.424)" fill="#c37b25"/>
            <rect id="Rectangle_181" data-name="Rectangle 181" width="7.964" height="4.424" transform="translate(0 0)" fill="#aa691c"/>
          </g>
        </g>
        <g id="Mask_Group_57" data-name="Mask Group 57" transform="translate(9.042 36.707) rotate(-106)" clip-path="url(#clip-path-4)">
          <g id="Group_86" data-name="Group 86" transform="translate(-0.29 -0.389)">
            <rect id="Rectangle_182" data-name="Rectangle 182" width="7.964" height="4.424" transform="translate(0 10.618)" fill="#e2a051"/>
            <rect id="Rectangle_183" data-name="Rectangle 183" width="7.964" height="6.194" transform="translate(0 4.424)" fill="#c37b25"/>
            <rect id="Rectangle_184" data-name="Rectangle 184" width="7.964" height="4.424" transform="translate(0 0)" fill="#aa691c"/>
          </g>
        </g>
        <g id="Mask_Group_58" data-name="Mask Group 58" transform="translate(51.515 42.016) rotate(-106)" clip-path="url(#clip-path-4)">
          <g id="Group_87" data-name="Group 87" transform="translate(-0.29 -0.389)">
            <rect id="Rectangle_185" data-name="Rectangle 185" width="7.964" height="4.424" transform="translate(0 10.618)" fill="#e2a051"/>
            <rect id="Rectangle_186" data-name="Rectangle 186" width="7.964" height="6.194" transform="translate(0 4.424)" fill="#c37b25"/>
            <rect id="Rectangle_187" data-name="Rectangle 187" width="7.964" height="4.424" transform="translate(0 0)" fill="#aa691c"/>
          </g>
        </g>
        <g id="Mask_Group_59" data-name="Mask Group 59" transform="translate(77.176 38.477) rotate(-106)" clip-path="url(#clip-path-4)">
          <g id="Group_88" data-name="Group 88" transform="translate(-0.29 -0.389)">
            <rect id="Rectangle_188" data-name="Rectangle 188" width="7.964" height="4.424" transform="translate(0 10.618)" fill="#e2a051"/>
            <rect id="Rectangle_189" data-name="Rectangle 189" width="7.964" height="6.194" transform="translate(0 4.424)" fill="#c37b25"/>
            <rect id="Rectangle_190" data-name="Rectangle 190" width="7.964" height="4.424" transform="translate(0 0)" fill="#aa691c"/>
          </g>
        </g>
        <g id="Mask_Group_60" data-name="Mask Group 60" transform="translate(37.821 20.035) rotate(41)" clip-path="url(#clip-path-8)">
          <g id="Group_89" data-name="Group 89" transform="translate(-0.29 -1.226)">
            <rect id="Rectangle_191" data-name="Rectangle 191" width="7.964" height="4.424" transform="translate(0 0)" fill="#e2a051"/>
            <rect id="Rectangle_192" data-name="Rectangle 192" width="7.964" height="6.194" transform="translate(0 4.424)" fill="#c37b25"/>
            <rect id="Rectangle_193" data-name="Rectangle 193" width="7.964" height="4.424" transform="translate(0 10.618)" fill="#aa691c"/>
          </g>
        </g>
        <g id="Mask_Group_61" data-name="Mask Group 61" transform="translate(19.575 39.743) rotate(-106)" clip-path="url(#clip-path-4)">
          <g id="Group_90" data-name="Group 90" transform="translate(-0.29 -0.389)">
            <rect id="Rectangle_194" data-name="Rectangle 194" width="7.964" height="4.424" transform="translate(0 10.618)" fill="#e2a051"/>
            <rect id="Rectangle_195" data-name="Rectangle 195" width="7.964" height="6.194" transform="translate(0 4.424)" fill="#c37b25"/>
            <rect id="Rectangle_196" data-name="Rectangle 196" width="7.964" height="4.424" transform="translate(0 0)" fill="#aa691c"/>
          </g>
        </g>
        <g id="Mask_Group_62" data-name="Mask Group 62" transform="translate(1.878 35.319) rotate(-106)" clip-path="url(#clip-path-4)">
          <g id="Group_91" data-name="Group 91" transform="translate(-0.29 -0.389)">
            <rect id="Rectangle_197" data-name="Rectangle 197" width="7.964" height="4.424" transform="translate(0 10.618)" fill="#e2a051"/>
            <rect id="Rectangle_198" data-name="Rectangle 198" width="7.964" height="6.194" transform="translate(0 4.424)" fill="#c37b25"/>
            <rect id="Rectangle_199" data-name="Rectangle 199" width="7.964" height="4.424" transform="translate(0 0)" fill="#aa691c"/>
          </g>
        </g>
        <g id="Mask_Group_63" data-name="Mask Group 63" transform="translate(44.352 40.628) rotate(-106)" clip-path="url(#clip-path-4)">
          <g id="Group_92" data-name="Group 92" transform="translate(-0.29 -0.389)">
            <rect id="Rectangle_200" data-name="Rectangle 200" width="7.964" height="4.424" transform="translate(0 10.618)" fill="#e2a051"/>
            <rect id="Rectangle_201" data-name="Rectangle 201" width="7.964" height="6.194" transform="translate(0 4.424)" fill="#c37b25"/>
            <rect id="Rectangle_202" data-name="Rectangle 202" width="7.964" height="4.424" transform="translate(0 0)" fill="#aa691c"/>
          </g>
        </g>
        <g id="Mask_Group_64" data-name="Mask Group 64" transform="translate(70.013 37.089) rotate(-106)" clip-path="url(#clip-path-4)">
          <g id="Group_93" data-name="Group 93" transform="translate(-0.29 -0.389)">
            <rect id="Rectangle_203" data-name="Rectangle 203" width="7.964" height="4.424" transform="translate(0 10.618)" fill="#e2a051"/>
            <rect id="Rectangle_204" data-name="Rectangle 204" width="7.964" height="6.194" transform="translate(0 4.424)" fill="#c37b25"/>
            <rect id="Rectangle_205" data-name="Rectangle 205" width="7.964" height="4.424" transform="translate(0 0)" fill="#aa691c"/>
          </g>
        </g>
        <g id="Mask_Group_65" data-name="Mask Group 65" transform="translate(52.863 7.647) rotate(41)" clip-path="url(#clip-path-8)">
          <g id="Group_94" data-name="Group 94" transform="translate(-0.29 -1.226)">
            <rect id="Rectangle_206" data-name="Rectangle 206" width="7.964" height="4.424" transform="translate(0 0)" fill="#e2a051"/>
            <rect id="Rectangle_207" data-name="Rectangle 207" width="7.964" height="6.194" transform="translate(0 4.424)" fill="#c37b25"/>
            <rect id="Rectangle_208" data-name="Rectangle 208" width="7.964" height="4.424" transform="translate(0 10.618)" fill="#aa691c"/>
          </g>
        </g>
        <g id="Mask_Group_66" data-name="Mask Group 66" transform="translate(37.16 31.346) rotate(-106)" clip-path="url(#clip-path-4)">
          <g id="Group_95" data-name="Group 95" transform="translate(-0.29 -0.389)">
            <rect id="Rectangle_209" data-name="Rectangle 209" width="7.964" height="4.424" transform="translate(0 10.618)" fill="#e2a051"/>
            <rect id="Rectangle_210" data-name="Rectangle 210" width="7.964" height="6.194" transform="translate(0 4.424)" fill="#c37b25"/>
            <rect id="Rectangle_211" data-name="Rectangle 211" width="7.964" height="4.424" transform="translate(0 0)" fill="#aa691c"/>
          </g>
        </g>
        <g id="Mask_Group_67" data-name="Mask Group 67" transform="translate(61.936 32.23) rotate(-106)" clip-path="url(#clip-path-4)">
          <g id="Group_96" data-name="Group 96" transform="translate(-0.29 -0.389)">
            <rect id="Rectangle_212" data-name="Rectangle 212" width="7.964" height="4.424" transform="translate(0 10.618)" fill="#e2a051"/>
            <rect id="Rectangle_213" data-name="Rectangle 213" width="7.964" height="6.194" transform="translate(0 4.424)" fill="#c37b25"/>
            <rect id="Rectangle_214" data-name="Rectangle 214" width="7.964" height="4.424" transform="translate(0 0)" fill="#aa691c"/>
          </g>
        </g>
        <g id="Mask_Group_68" data-name="Mask Group 68" transform="translate(87.597 28.691) rotate(-106)" clip-path="url(#clip-path-4)">
          <g id="Group_97" data-name="Group 97" transform="translate(-0.29 -0.389)">
            <rect id="Rectangle_215" data-name="Rectangle 215" width="7.964" height="4.424" transform="translate(0 10.618)" fill="#e2a051"/>
            <rect id="Rectangle_216" data-name="Rectangle 216" width="7.964" height="6.194" transform="translate(0 4.424)" fill="#c37b25"/>
            <rect id="Rectangle_217" data-name="Rectangle 217" width="7.964" height="4.424" transform="translate(0 0)" fill="#aa691c"/>
          </g>
        </g>
        <g id="Mask_Group_69" data-name="Mask Group 69" transform="translate(44.772 18.712) rotate(-139)" clip-path="url(#clip-path-23)">
          <g id="Group_98" data-name="Group 98" transform="translate(-0.29 -1.226)">
            <rect id="Rectangle_218" data-name="Rectangle 218" width="7.964" height="4.424" transform="translate(0 0)" fill="#e2a051"/>
            <rect id="Rectangle_219" data-name="Rectangle 219" width="7.964" height="6.194" transform="translate(0 4.424)" fill="#c37b25"/>
            <rect id="Rectangle_220" data-name="Rectangle 220" width="7.964" height="4.424" transform="translate(0 10.618)" fill="#aa691c"/>
          </g>
        </g>
        <g id="Mask_Group_70" data-name="Mask Group 70" transform="translate(49.528 26.6) rotate(74)" clip-path="url(#clip-path-4)">
          <g id="Group_99" data-name="Group 99" transform="translate(-0.29 -0.389)">
            <rect id="Rectangle_221" data-name="Rectangle 221" width="7.964" height="4.424" transform="translate(0 10.618)" fill="#e2a051"/>
            <rect id="Rectangle_222" data-name="Rectangle 222" width="7.964" height="6.194" transform="translate(0 4.424)" fill="#c37b25"/>
            <rect id="Rectangle_223" data-name="Rectangle 223" width="7.964" height="4.424" transform="translate(0 0)" fill="#aa691c"/>
          </g>
        </g>
        <g id="Mask_Group_71" data-name="Mask Group 71" transform="translate(31.831 22.176) rotate(74)" clip-path="url(#clip-path-4)">
          <g id="Group_100" data-name="Group 100" transform="translate(-0.29 -0.389)">
            <rect id="Rectangle_224" data-name="Rectangle 224" width="7.964" height="4.424" transform="translate(0 10.618)" fill="#e2a051"/>
            <rect id="Rectangle_225" data-name="Rectangle 225" width="7.964" height="6.194" transform="translate(0 4.424)" fill="#c37b25"/>
            <rect id="Rectangle_226" data-name="Rectangle 226" width="7.964" height="4.424" transform="translate(0 0)" fill="#aa691c"/>
          </g>
        </g>
        <g id="Mask_Group_72" data-name="Mask Group 72" transform="translate(74.304 27.485) rotate(74)" clip-path="url(#clip-path-4)">
          <g id="Group_101" data-name="Group 101" transform="translate(-0.29 -0.389)">
            <rect id="Rectangle_227" data-name="Rectangle 227" width="7.964" height="4.424" transform="translate(0 10.618)" fill="#e2a051"/>
            <rect id="Rectangle_228" data-name="Rectangle 228" width="7.964" height="6.194" transform="translate(0 4.424)" fill="#c37b25"/>
            <rect id="Rectangle_229" data-name="Rectangle 229" width="7.964" height="4.424" transform="translate(0 0)" fill="#aa691c"/>
          </g>
        </g>
        <g id="Mask_Group_73" data-name="Mask Group 73" transform="translate(99.965 23.945) rotate(74)" clip-path="url(#clip-path-4)">
          <g id="Group_102" data-name="Group 102" transform="translate(-0.29 -0.389)">
            <rect id="Rectangle_230" data-name="Rectangle 230" width="7.964" height="4.424" transform="translate(0 10.618)" fill="#e2a051"/>
            <rect id="Rectangle_231" data-name="Rectangle 231" width="7.964" height="6.194" transform="translate(0 4.424)" fill="#c37b25"/>
            <rect id="Rectangle_232" data-name="Rectangle 232" width="7.964" height="4.424" transform="translate(0 0)" fill="#aa691c"/>
          </g>
        </g>
        <g id="Mask_Group_74" data-name="Mask Group 74" transform="matrix(-0.996, -0.087, 0.087, -0.996, 61.802, 27.244)" clip-path="url(#clip-path-4)">
          <g id="Group_103" data-name="Group 103" transform="translate(-0.29 -0.389)">
            <rect id="Rectangle_233" data-name="Rectangle 233" width="7.964" height="4.424" transform="translate(0 10.618)" fill="#e2a051"/>
            <rect id="Rectangle_234" data-name="Rectangle 234" width="7.964" height="6.194" transform="translate(0 4.424)" fill="#c37b25"/>
            <rect id="Rectangle_235" data-name="Rectangle 235" width="7.964" height="4.424" transform="translate(0 0)" fill="#aa691c"/>
          </g>
        </g>
        <g id="Mask_Group_75" data-name="Mask Group 75" transform="matrix(0.996, -0.087, 0.087, 0.996, 61.208, 5.903)" clip-path="url(#clip-path-23)">
          <g id="Group_104" data-name="Group 104" transform="translate(-0.29 -1.226)">
            <rect id="Rectangle_236" data-name="Rectangle 236" width="7.964" height="4.424" transform="translate(0 0)" fill="#e2a051"/>
            <rect id="Rectangle_237" data-name="Rectangle 237" width="7.964" height="6.194" transform="translate(0 4.424)" fill="#c37b25"/>
            <rect id="Rectangle_238" data-name="Rectangle 238" width="7.964" height="4.424" transform="translate(0 10.618)" fill="#aa691c"/>
          </g>
        </g>
        <g id="Mask_Group_76" data-name="Mask Group 76" transform="matrix(0.996, -0.087, 0.087, 0.996, 52.36, 0.594)" clip-path="url(#clip-path-23)">
          <g id="Group_105" data-name="Group 105" transform="translate(-0.29 -1.226)">
            <rect id="Rectangle_239" data-name="Rectangle 239" width="7.964" height="4.424" transform="translate(0 0)" fill="#e2a051"/>
            <rect id="Rectangle_240" data-name="Rectangle 240" width="7.964" height="6.194" transform="translate(0 4.424)" fill="#c37b25"/>
            <rect id="Rectangle_241" data-name="Rectangle 241" width="7.964" height="4.424" transform="translate(0 10.618)" fill="#aa691c"/>
          </g>
        </g>
        <g id="Mask_Group_77" data-name="Mask Group 77" transform="translate(58.743 18.928) rotate(25)" clip-path="url(#clip-path-23)">
          <g id="Group_106" data-name="Group 106" transform="translate(-0.29 -1.226)">
            <rect id="Rectangle_242" data-name="Rectangle 242" width="7.964" height="4.424" transform="translate(0 0)" fill="#e2a051"/>
            <rect id="Rectangle_243" data-name="Rectangle 243" width="7.964" height="6.194" transform="translate(0 4.424)" fill="#c37b25"/>
            <rect id="Rectangle_244" data-name="Rectangle 244" width="7.964" height="4.424" transform="translate(0 10.618)" fill="#aa691c"/>
          </g>
        </g>
        <g id="Mask_Group_78" data-name="Mask Group 78" transform="translate(78.21 18.858) rotate(92)" clip-path="url(#clip-path-23)">
          <g id="Group_107" data-name="Group 107" transform="translate(-0.29 -1.226)">
            <rect id="Rectangle_245" data-name="Rectangle 245" width="7.964" height="4.424" transform="translate(0 0)" fill="#e2a051"/>
            <rect id="Rectangle_246" data-name="Rectangle 246" width="7.964" height="6.194" transform="translate(0 4.424)" fill="#c37b25"/>
            <rect id="Rectangle_247" data-name="Rectangle 247" width="7.964" height="4.424" transform="translate(0 10.618)" fill="#aa691c"/>
          </g>
        </g>
        <g id="Mask_Group_79" data-name="Mask Group 79" transform="translate(85.289 23.282) rotate(92)" clip-path="url(#clip-path-23)">
          <g id="Group_108" data-name="Group 108" transform="translate(-0.29 -1.226)">
            <rect id="Rectangle_248" data-name="Rectangle 248" width="7.964" height="4.424" transform="translate(0 0)" fill="#e2a051"/>
            <rect id="Rectangle_249" data-name="Rectangle 249" width="7.964" height="6.194" transform="translate(0 4.424)" fill="#c37b25"/>
            <rect id="Rectangle_250" data-name="Rectangle 250" width="7.964" height="4.424" transform="translate(0 10.618)" fill="#aa691c"/>
          </g>
        </g>
        <g id="Mask_Group_80" data-name="Mask Group 80" transform="translate(70.181 22.835) rotate(45)" clip-path="url(#clip-path-23)">
          <g id="Group_109" data-name="Group 109" transform="translate(-0.29 -1.226)">
            <rect id="Rectangle_251" data-name="Rectangle 251" width="7.964" height="4.424" transform="translate(0 0)" fill="#e2a051"/>
            <rect id="Rectangle_252" data-name="Rectangle 252" width="7.964" height="6.194" transform="translate(0 4.424)" fill="#c37b25"/>
            <rect id="Rectangle_253" data-name="Rectangle 253" width="7.964" height="4.424" transform="translate(0 10.618)" fill="#aa691c"/>
          </g>
        </g>
        <g id="Mask_Group_81" data-name="Mask Group 81" transform="matrix(0.545, 0.839, -0.839, 0.545, 75.157, 8.435)" clip-path="url(#clip-path-4)">
          <g id="Group_110" data-name="Group 110" transform="translate(-0.29 -0.389)">
            <rect id="Rectangle_254" data-name="Rectangle 254" width="7.964" height="4.424" transform="translate(0 10.618)" fill="#e2a051"/>
            <rect id="Rectangle_255" data-name="Rectangle 255" width="7.964" height="6.194" transform="translate(0 4.424)" fill="#c37b25"/>
            <rect id="Rectangle_256" data-name="Rectangle 256" width="7.964" height="4.424" transform="translate(0 0)" fill="#aa691c"/>
          </g>
        </g>
        <g id="Mask_Group_82" data-name="Mask Group 82" transform="translate(86.354 9.542) rotate(71)" clip-path="url(#clip-path-4)">
          <g id="Group_111" data-name="Group 111" transform="translate(-0.29 -0.389)">
            <rect id="Rectangle_257" data-name="Rectangle 257" width="7.964" height="4.424" transform="translate(0 10.618)" fill="#e2a051"/>
            <rect id="Rectangle_258" data-name="Rectangle 258" width="7.964" height="6.194" transform="translate(0 4.424)" fill="#c37b25"/>
            <rect id="Rectangle_259" data-name="Rectangle 259" width="7.964" height="4.424" transform="translate(0 0)" fill="#aa691c"/>
          </g>
        </g>
        <g id="Mask_Group_83" data-name="Mask Group 83" transform="translate(94.318 17.506) rotate(71)" clip-path="url(#clip-path-4)">
          <g id="Group_112" data-name="Group 112" transform="translate(-0.29 -0.389)">
            <rect id="Rectangle_260" data-name="Rectangle 260" width="7.964" height="4.424" transform="translate(0 10.618)" fill="#e2a051"/>
            <rect id="Rectangle_261" data-name="Rectangle 261" width="7.964" height="6.194" transform="translate(0 4.424)" fill="#c37b25"/>
            <rect id="Rectangle_262" data-name="Rectangle 262" width="7.964" height="4.424" transform="translate(0 0)" fill="#aa691c"/>
          </g>
        </g>
        <g id="Mask_Group_84" data-name="Mask Group 84" transform="translate(92.548 11.312) rotate(71)" clip-path="url(#clip-path-4)">
          <g id="Group_113" data-name="Group 113" transform="translate(-0.29 -0.389)">
            <rect id="Rectangle_263" data-name="Rectangle 263" width="7.964" height="4.424" transform="translate(0 10.618)" fill="#e2a051"/>
            <rect id="Rectangle_264" data-name="Rectangle 264" width="7.964" height="6.194" transform="translate(0 4.424)" fill="#c37b25"/>
            <rect id="Rectangle_265" data-name="Rectangle 265" width="7.964" height="4.424" transform="translate(0 0)" fill="#aa691c"/>
          </g>
        </g>
        <g id="Mask_Group_85" data-name="Mask Group 85" transform="translate(57.154 15.736) rotate(71)" clip-path="url(#clip-path-4)">
          <g id="Group_114" data-name="Group 114" transform="translate(-0.29 -0.389)">
            <rect id="Rectangle_266" data-name="Rectangle 266" width="7.964" height="4.424" transform="translate(0 10.618)" fill="#e2a051"/>
            <rect id="Rectangle_267" data-name="Rectangle 267" width="7.964" height="6.194" transform="translate(0 4.424)" fill="#c37b25"/>
            <rect id="Rectangle_268" data-name="Rectangle 268" width="7.964" height="4.424" transform="translate(0 0)" fill="#aa691c"/>
          </g>
        </g>
        <g id="Mask_Group_86" data-name="Mask Group 86" transform="translate(39.203 13.714) rotate(-114)" clip-path="url(#clip-path-4)">
          <g id="Group_115" data-name="Group 115" transform="translate(-0.29 -0.389)">
            <rect id="Rectangle_269" data-name="Rectangle 269" width="7.964" height="4.424" transform="translate(0 10.618)" fill="#e2a051"/>
            <rect id="Rectangle_270" data-name="Rectangle 270" width="7.964" height="6.194" transform="translate(0 4.424)" fill="#c37b25"/>
            <rect id="Rectangle_271" data-name="Rectangle 271" width="7.964" height="4.424" transform="translate(0 0)" fill="#aa691c"/>
          </g>
        </g>
        <g id="Mask_Group_87" data-name="Mask Group 87" transform="matrix(0.656, 0.755, -0.755, 0.656, 48.931, 28.651)" clip-path="url(#clip-path-23)">
          <g id="Group_116" data-name="Group 116" transform="translate(-0.29 -1.226)">
            <rect id="Rectangle_272" data-name="Rectangle 272" width="7.964" height="4.424" transform="translate(0 0)" fill="#e2a051"/>
            <rect id="Rectangle_273" data-name="Rectangle 273" width="7.964" height="6.194" transform="translate(0 4.424)" fill="#c37b25"/>
            <rect id="Rectangle_274" data-name="Rectangle 274" width="7.964" height="4.424" transform="translate(0 10.618)" fill="#aa691c"/>
          </g>
        </g>
        <g id="Mask_Group_88" data-name="Mask Group 88" transform="matrix(0.656, 0.755, -0.755, 0.656, 73.707, 29.536)" clip-path="url(#clip-path-23)">
          <g id="Group_117" data-name="Group 117" transform="translate(-0.29 -1.226)">
            <rect id="Rectangle_275" data-name="Rectangle 275" width="7.964" height="4.424" transform="translate(0 0)" fill="#e2a051"/>
            <rect id="Rectangle_276" data-name="Rectangle 276" width="7.964" height="6.194" transform="translate(0 4.424)" fill="#c37b25"/>
            <rect id="Rectangle_277" data-name="Rectangle 277" width="7.964" height="4.424" transform="translate(0 10.618)" fill="#aa691c"/>
          </g>
        </g>
        <g id="Mask_Group_89" data-name="Mask Group 89" transform="matrix(0.656, 0.755, -0.755, 0.656, 99.368, 25.997)" clip-path="url(#clip-path-23)">
          <g id="Group_118" data-name="Group 118" transform="translate(-0.29 -1.226)">
            <rect id="Rectangle_278" data-name="Rectangle 278" width="7.964" height="4.424" transform="translate(0 0)" fill="#e2a051"/>
            <rect id="Rectangle_279" data-name="Rectangle 279" width="7.964" height="6.194" transform="translate(0 4.424)" fill="#c37b25"/>
            <rect id="Rectangle_280" data-name="Rectangle 280" width="7.964" height="4.424" transform="translate(0 10.618)" fill="#aa691c"/>
          </g>
        </g>
        <g id="Mask_Group_90" data-name="Mask Group 90" transform="translate(53.581 29.285) rotate(139)" clip-path="url(#clip-path-4)">
          <g id="Group_119" data-name="Group 119" transform="translate(-0.29 -0.389)">
            <rect id="Rectangle_281" data-name="Rectangle 281" width="7.964" height="4.424" transform="translate(0 10.618)" fill="#e2a051"/>
            <rect id="Rectangle_282" data-name="Rectangle 282" width="7.964" height="6.194" transform="translate(0 4.424)" fill="#c37b25"/>
            <rect id="Rectangle_283" data-name="Rectangle 283" width="7.964" height="4.424" transform="translate(0 0)" fill="#aa691c"/>
          </g>
        </g>
        <g id="Mask_Group_91" data-name="Mask Group 91" transform="translate(36.223 30.116) rotate(156)" clip-path="url(#clip-path-23)">
          <g id="Group_120" data-name="Group 120" transform="translate(-0.29 -1.226)">
            <rect id="Rectangle_284" data-name="Rectangle 284" width="7.964" height="4.424" transform="translate(0 0)" fill="#e2a051"/>
            <rect id="Rectangle_285" data-name="Rectangle 285" width="7.964" height="6.194" transform="translate(0 4.424)" fill="#c37b25"/>
            <rect id="Rectangle_286" data-name="Rectangle 286" width="7.964" height="4.424" transform="translate(0 10.618)" fill="#aa691c"/>
          </g>
        </g>
        <g id="Mask_Group_92" data-name="Mask Group 92" transform="translate(18.526 25.692) rotate(156)" clip-path="url(#clip-path-23)">
          <g id="Group_121" data-name="Group 121" transform="translate(-0.29 -1.226)">
            <rect id="Rectangle_287" data-name="Rectangle 287" width="7.964" height="4.424" transform="translate(0 0)" fill="#e2a051"/>
            <rect id="Rectangle_288" data-name="Rectangle 288" width="7.964" height="6.194" transform="translate(0 4.424)" fill="#c37b25"/>
            <rect id="Rectangle_289" data-name="Rectangle 289" width="7.964" height="4.424" transform="translate(0 10.618)" fill="#aa691c"/>
          </g>
        </g>
        <g id="Mask_Group_93" data-name="Mask Group 93" transform="translate(60.999 31.001) rotate(156)" clip-path="url(#clip-path-23)">
          <g id="Group_122" data-name="Group 122" transform="translate(-0.29 -1.226)">
            <rect id="Rectangle_290" data-name="Rectangle 290" width="7.964" height="4.424" transform="translate(0 0)" fill="#e2a051"/>
            <rect id="Rectangle_291" data-name="Rectangle 291" width="7.964" height="6.194" transform="translate(0 4.424)" fill="#c37b25"/>
            <rect id="Rectangle_292" data-name="Rectangle 292" width="7.964" height="4.424" transform="translate(0 10.618)" fill="#aa691c"/>
          </g>
        </g>
        <g id="Mask_Group_94" data-name="Mask Group 94" transform="translate(86.66 27.462) rotate(156)" clip-path="url(#clip-path-23)">
          <g id="Group_123" data-name="Group 123" transform="translate(-0.29 -1.226)">
            <rect id="Rectangle_293" data-name="Rectangle 293" width="7.964" height="4.424" transform="translate(0 0)" fill="#e2a051"/>
            <rect id="Rectangle_294" data-name="Rectangle 294" width="7.964" height="6.194" transform="translate(0 4.424)" fill="#c37b25"/>
            <rect id="Rectangle_295" data-name="Rectangle 295" width="7.964" height="4.424" transform="translate(0 10.618)" fill="#aa691c"/>
          </g>
        </g>
      </g>
    </g>
  </g>
</svg>
